PathFileType	4	(X/Y/Z)	Patient5_TMGait_0pt45_1_right_03.trc.trc
DataRate	CameraRate	NumFrames	NumMarkers	Units	OrigDataRate	OrigDataStartFrame	OrigNumFrames
60.085836909871	60.085836909871	6	32	mm	60.085836909871	18	       141
Frame#	Time	R.ASIS			L.ASIS			Chest			R.Shoulder			Neck			L.Shoulder			L.Elbow			L.Wrist			R.Elbow			R.Wrist			L.Thigh.Superior			L.Thigh.Lateral			L.Thigh.Inferior			L.Patella			L.Shank.Superior			L.Shank.Lateral			L.Shank.Inferior			L.Heel			L.Midfoot.Lateral			L.Midfoot.Superior			L.Toe			R.Thigh.Superior			R.Thigh.Lateral			R.Thigh.Inferior			R.Patella			R.Shank.Superior			R.Shank.Lateral			R.Shank.Inferior			R.Heel			R.Midfoot.Lateral			R.Midfoot.Superior			R.Toe			
		X1	Y1	Z1	X2	Y2	Z2	X3	Y3	Z3	X4	Y4	Z4	X5	Y5	Z5	X6	Y6	Z6	X7	Y7	Z7	X8	Y8	Z8	X9	Y9	Z9	X10	Y10	Z10	X11	Y11	Z11	X12	Y12	Z12	X13	Y13	Z13	X14	Y14	Z14	X15	Y15	Z15	X16	Y16	Z16	X17	Y17	Z17	X18	Y18	Z18	X19	Y19	Z19	X20	Y20	Z20	X21	Y21	Z21	X22	Y22	Z22	X23	Y23	Z23	X24	Y24	Z24	X25	Y25	Z25	X26	Y26	Z26	X27	Y27	Z27	X28	Y28	Z28	X29	Y29	Z29	X30	Y30	Z30	X31	Y31	Z31	X32	Y32	Z32	

18	4.752928571429	921.051791361412	993.548294061477	548.054630301495	921.915047185806	952.793427065459	303.170616316436	959.545724790953	1437.870940704334	450.762664600173	829.388287986060	1490.394138913188	601.970145404006	827.082034799035	1550.437644707279	416.261294467462	930.941408567787	1506.640277671283	250.345513101700	920.169741946378	1175.710508645266	122.629014521154	1063.235265506458	929.875098489310	162.363188862525	717.489309038493	1168.409113348125	713.875402283377	928.961164168522	970.164407878474	698.066451249901	909.040950724130	724.290479330642	312.681798302652	822.419348573072	664.990144549005	269.651557914598	874.578482419962	598.161050117442	339.094120517815	843.971609019444	482.798198347760	346.762054846131	779.461214675165	391.374735538294	367.722672861280	706.225062756322	331.923255976161	287.534317941946	726.548936263485	275.913728319878	378.155496495757	560.745943005960	53.371583932116	378.541778605975	648.577831136130	29.163825736294	318.383264701231	745.614648617948	88.486549736630	361.744287699042	853.131330010683	44.932650088870	364.615436106406	993.257633539931	784.120807509853	575.015332128773	941.479865332912	693.748369056643	641.213205591666	1033.213199061798	662.575574606259	568.138254719654	1067.405026164734	570.678798522217	609.578545431083	1044.562350731748	460.503484542130	579.235590546850	980.474167718920	384.137755328529	660.044137788737	1050.572385283000	320.416621256156	584.910506140711	966.316013294735	86.769658621200	557.400997293536	1047.433573269128	52.934415713499	627.278016195866	1145.467614178473	131.580930521356	621.245150550676	1252.733127660370	98.969131253429	616.076069774310	
19	4.769571428571	923.654781213460	990.168472602381	547.955286726016	922.458182240636	951.844097883003	303.727898283614	959.241098257385	1436.633587838833	452.748321070813	830.765113650989	1488.067721077550	605.661594011949	825.873189006087	1548.539283593577	420.303676482741	927.425334378918	1505.670358497342	252.678161008959	914.532672089408	1175.298579651333	123.718791872154	1057.002764368973	928.826953743920	162.268173800507	719.291716789634	1166.210788439239	718.236496556657	929.488250637238	966.756052441679	700.452438800194	907.683905226799	723.162529887732	312.429389625095	819.866940111917	664.581638633707	270.063579536170	872.283702715197	597.060813137879	338.681136492218	840.340521858659	481.645817700713	346.273792464085	775.111002256359	390.804356760749	367.633478251552	700.585583778958	332.336534545810	287.960297725740	721.114724885447	276.028254327629	378.433072732825	553.398786232196	54.133096901413	378.814645709214	641.066809344126	29.653561043813	318.580722913492	738.284266819315	88.544731453281	361.624184237543	845.572673550275	44.898867541702	364.493400982466	994.051854389835	779.376040759239	577.060888395390	940.127195437058	688.213094198550	641.280662867104	1032.751672114261	656.956530081133	569.171746437596	1064.994843774763	564.262541085441	609.706750384644	1042.305283794411	454.862301039729	577.656046053480	977.073108293040	377.988813156656	657.004387021368	1047.887621686421	314.714840922625	582.143188926658	963.095753644496	81.832320030987	551.571370380631	1043.383932313900	46.857553476521	621.866691672559	1141.904035533168	125.002667719664	617.505139956526	1249.020071201828	91.803629760072	612.889580669367	
20	4.786214285714	926.437954057934	986.614972487377	548.122138336297	923.320354928484	950.857964692244	304.486216342950	959.221481152866	1435.302489022038	454.910586235507	832.552655438056	1485.633103107106	609.572347679211	824.942988637077	1546.525278986527	424.606361269300	923.997371360732	1504.561081416360	255.239590506797	908.854886366495	1174.860568437906	124.873302992206	1050.793644674357	927.755370570885	161.897647213056	721.827534986650	1163.837059451926	722.945278858602	930.799167263421	963.300951871823	702.790955712540	906.504960794759	721.887463706937	312.411007326041	817.610219551955	664.109427061019	270.698665598597	870.233893735683	595.850653061593	338.498995259394	836.965448739020	480.370219307785	346.033067482681	770.945747386140	390.177557763082	367.762159675666	695.206310404786	332.727708632779	288.580424344484	715.790330876060	276.151758600884	378.907937131029	546.092407475878	55.056914706889	379.124368886415	633.578229051948	30.286538903419	318.798312413901	730.994538927057	88.612738457579	361.554349980913	838.026130668940	44.859633723342	364.362796992743	994.555609248612	774.268302252916	579.117475281114	938.229120792460	682.486025256301	641.266699827531	1031.711382564321	650.950396463225	570.236809824449	1061.838615329617	557.456071073183	609.826309404876	1039.231813942501	448.894038888495	575.960874434198	972.681455116511	371.571760812853	653.727248095662	1044.245779157127	308.694301432298	579.188447519851	958.743450560810	76.658285761982	545.465715300191	1038.062775936370	40.822558216795	616.407630448138	1137.189847882137	118.236029200466	613.343500902501	1244.113309021327	84.262038895359	609.525460170005	
21	4.802857142857	929.380260165371	982.979437277606	548.650547793932	924.431854316229	949.799710647012	305.515014362595	959.510875754442	1433.892195273583	457.263677441292	834.740353711596	1483.112775415754	613.703410036769	824.323697523154	1544.426442379128	429.148308081845	920.707383660587	1503.327875598348	258.037228786551	903.180442613511	1174.384912924604	126.155574266612	1044.604201262773	926.626078991825	161.260157377019	725.123478583115	1161.295517141074	727.976921416388	932.936831286105	959.836185387216	705.075419450865	905.574392492527	720.480203105171	312.701661874659	815.723408978753	663.561189655198	271.584277220383	868.478692513776	594.543653682622	338.604088844507	833.891523912877	478.953331376957	346.090832656350	766.993999532069	389.496815928682	368.143173773641	690.132562183653	333.110188693608	289.377192216484	710.594093186441	276.246400481042	379.526625829404	538.824927125697	56.159748298698	379.437634087832	626.117492398232	31.069597515692	319.019017365117	723.751632662205	88.701456105174	361.529591949662	830.492921714175	44.811763644420	364.224268201234	994.804871504355	768.902338543721	581.119469353013	935.925397854822	676.761275493105	641.144721706301	1030.089434085480	644.755503370348	571.136926647522	1058.065127673537	550.517854489785	609.736151111872	1035.460460198484	442.818499674205	574.075194940492	967.583041197116	365.121093939650	650.287888005142	1039.816779425025	302.579688762342	576.027431002022	953.476210419234	71.401901280571	539.330827950007	1031.750363826905	35.221655413037	611.159932161850	1131.594844995532	111.648151952995	608.688030666624	1238.281046386132	76.712097671871	605.936309239744	
22	4.819500000000	932.420067260916	979.395869594328	549.605338485217	925.728374489308	948.651386048455	306.873987937061	960.134457830405	1432.439825311771	459.823819293621	837.309399867871	1480.556088718584	618.048507014436	824.055000644090	1542.308689919338	433.897356425198	917.628871059628	1502.015311716276	261.072178474776	897.553180951876	1173.878990147627	127.637673415185	1038.416316332696	925.423837005553	160.368957954406	729.205314678672	1158.614728728382	733.290340266481	935.921838706661	956.396224762908	707.294526192297	904.949001522274	718.984965349980	313.383291020209	814.261648344608	662.928052699048	272.763592421955	867.063032807714	593.176345930936	339.063916409321	831.168925449498	477.393750497333	346.506012774977	763.293866871996	388.772860115755	368.809779277388	685.418346514093	333.506573789685	290.330093036891	705.552726821282	276.287416834036	380.231930168202	531.595432738158	57.472299948097	379.718581611251	618.692312267031	32.014476121298	319.224639703576	716.567991338672	88.830347501621	361.539390724761	822.974182531339	44.749660841366	364.080178226947	994.866237503163	763.492233287565	582.952792593093	933.436542945453	671.297671497685	640.926851069033	1027.965263181615	638.669455464325	571.687753527961	1053.911029854961	543.791564557715	609.247875135222	1031.195428602965	436.930266985945	571.956398496803	962.169348723122	358.944222173385	646.820129091911	1034.845151497966	296.667596618739	572.680253081377	947.547819817021	66.299735891473	533.446821537658	1024.764573522926	30.444502379837	606.384028371844	1125.434994795138	105.613213558760	603.565261433502	1231.834108252273	69.528051960241	602.155502443605	
23	4.836142857143	935.454566795638	976.036749613526	551.011567945726	927.160099658548	947.437403850944	308.599953773207	961.113533414268	1431.012051121141	462.607814860218	840.228319085523	1478.049373047106	622.587845225310	824.182611773930	1540.279493361516	438.808450493652	914.865022893483	1500.703766799032	264.338985548186	892.018700331767	1173.383832136666	129.396980752042	1032.194686213463	924.163212923356	159.243920519244	734.091364139062	1155.855341798805	738.822951893394	939.749266410151	953.024621498052	709.434211905729	904.663938921678	717.483114894432	314.535174255908	813.269469060485	662.223080802402	274.280425797856	866.032858567514	591.816506539691	339.951913514528	828.865017316730	475.714081180694	347.336095059083	759.905438457824	388.027601861990	369.782686920186	681.133329973952	333.951567869336	291.416558818021	700.710812522883	276.292105794476	380.998418231216	524.409992115421	59.051383968212	379.936749022383	611.315068420802	33.145383096749	319.399246265438	709.470548550162	89.023706556105	361.568737122342	815.472663719450	44.667628299532	363.933845599159	994.824422296883	758.354393539588	584.462747518100	931.058033950410	666.399048638043	640.667607465077	1025.519533584975	633.065981162032	571.753962305183	1049.714958764334	537.672557318850	608.229036565384	1026.714244400884	431.567459014365	569.620934942211	956.899252609747	353.394455994106	643.522902278533	1029.623972330793	291.295129297092	569.228431858719	941.207996035573	61.652035628296	528.104962222129	1017.416581986352	26.790994382265	602.300223979793	1119.021152452001	100.442335192717	598.146350372745	1225.076833903268	63.032442701484	598.313596928141	
